#!OML:ASF G:\JayActor3\Patient Classification 1\Patient 1\Session 6\male.ASF
:FULLY-SPECIFIED
:DEGREES
828
root 9.18992 16.7154 -4.48147 -6.12497 -48.1406 0.30729
lowerback 9.08809 0.431417 7.52579
upperback -1.64647 1.59059 2.68607
thorax -6.73777 0.526198 -1.62687
lowerneck -4.3287 2.06767 5.97687
upperneck 12.475 3.48485 -10.509
head 4.71052 1.36324 -4.06751
rclavicle 4.86029e-014 -2.54444e-014
rhumerus -32.5259 12.1694 -74.1808
rradius 35.7623
rwrist 4.47876
rhand -18.4812 -2.88131
rfingers 7.12502
rthumb 7.80592 -32.7172
lclavicle 4.86029e-014 -2.54444e-014
lhumerus -48.1398 -20.8756 93.0729
lradius 40.3197
lwrist 21.8422
lhand -8.71601 6.83884
lfingers 7.12502
lthumb 17.2198 36.0959
rfemur -5.77935 -7.59927 21.023
rtibia 26.4268
rfoot -26.4538 -13.9719
rtoes 6.07273
lfemur -14.0965 22.0033 -10.0752
ltibia 48.3377
lfoot -6.76324 9.71526
ltoes -11.0039
829
root 9.15843 16.708 -4.45685 -6.10949 -48.3766 0.345695
lowerback 9.11142 0.509988 7.68591
upperback -1.62653 1.71503 2.7075
thorax -6.71666 0.581833 -1.71134
lowerneck -4.31607 2.14296 6.04021
upperneck 12.6371 3.60109 -10.5694
head 4.76969 1.41653 -4.0924
rclavicle 2.94201e-014 4.77083e-015
rhumerus -32.272 12.5014 -74.2611
rradius 36.2668
rwrist 4.28852
rhand -18.5411 -2.84644
rfingers 7.12502
rthumb 7.74807 -32.6845
lclavicle 2.94201e-014 4.77083e-015
lhumerus -48.4576 -20.7868 93.388
lradius 40.2778
lwrist 21.6166
lhand -8.37922 6.69997
lfingers 7.12502
lthumb 17.5439 35.9284
rfemur -5.83549 -7.46697 21.0254
rtibia 26.6972
rfoot -26.6727 -13.7997
rtoes 5.98898
lfemur -14.2579 21.8805 -10.3795
ltibia 47.1898
lfoot -7.21296 9.59922
ltoes -11.359
830
root 9.12733 16.7006 -4.4315 -6.11805 -48.6304 0.412747
lowerback 9.12522 0.58237 7.81481
upperback -1.60362 1.82641 2.72759
thorax -6.68813 0.63269 -1.77775
lowerneck -4.27441 2.22472 6.14459
upperneck 12.7805 3.72866 -10.6809
head 4.82081 1.47542 -4.13985
rclavicle -2.47487e-014 2.38542e-014
rhumerus -32.0107 12.8157 -74.3436
rradius 36.7557
rwrist 4.10846
rhand -18.5866 -2.80834
rfingers 7.12502
rthumb 7.70419 -32.648
lclavicle -2.47487e-014 2.38542e-014
lhumerus -48.7683 -20.684 93.7085
lradius 40.2018
lwrist 21.4253
lhand -8.08256 6.58854
lfingers 7.12502
lthumb 17.8294 35.7912
rfemur -5.89357 -7.34406 21.0015
rtibia 26.9771
rfoot -26.8578 -13.6035
rtoes 5.89392
lfemur -14.3607 21.7625 -10.6819
ltibia 46.0232
lfoot -7.64322 9.4086
ltoes -11.6655
831
root 9.09652 16.693 -4.40554 -6.14234 -48.8954 0.498369
lowerback 9.13089 0.648151 7.91923
upperback -1.58165 1.9254 2.74761
thorax -6.65723 0.67859 -1.82864
lowerneck -4.21755 2.31018 6.27172
upperneck 12.9263 3.86418 -10.8242
head 4.87194 1.5377 -4.20099
rclavicle 2.10712e-014 -4.6118e-014
rhumerus -31.7506 13.1115 -74.4292
rradius 37.2288
rwrist 3.92447
rhand -18.6219 -2.77331
rfingers 7.12502
rthumb 7.67007 -32.6142
lclavicle 2.10712e-014 -4.6118e-014
lhumerus -49.083 -20.5898 94.0464
lradius 40.0966
lwrist 21.2918
lhand -7.84082 6.51954
lfingers 7.12502
lthumb 18.062 35.7009
rfemur -5.95347 -7.23331 20.9582
rtibia 27.2647
rfoot -27.0219 -13.3883
rtoes 5.78834
lfemur -14.4136 21.6548 -10.9761
ltibia 44.8499
lfoot -8.05651 9.13428
ltoes -11.9543
832
root 9.06613 16.6849 -4.37893 -6.17453 -49.1686 0.59321
lowerback 9.12969 0.704803 8.00622
upperback -1.56256 2.00979 2.76963
thorax -6.62707 0.71804 -1.86545
lowerneck -4.17068 2.40183 6.39911
upperneck 13.1044 4.01165 -10.9771
head 4.93635 1.60418 -4.26489
rclavicle 3.25013e-014 -1.59028e-015
rhumerus -31.4966 13.4116 -74.5254
rradius 37.6872
rwrist 3.71467
rhand -18.6529 -2.74863
rfingers 7.12502
rthumb 7.64022 -32.5906
lclavicle 3.25013e-014 -1.59028e-015
lhumerus -49.3899 -20.4878 94.399
lradius 39.9581
lwrist 21.237
lhand -7.6808 6.56377
lfingers 7.12502
lthumb 18.2159 35.7308
rfemur -6.01512 -7.14446 20.9
rtibia 27.5591
rfoot -27.1576 -13.1478
rtoes 5.6579
lfemur -14.4256 21.5539 -11.2604
ltibia 43.6813
lfoot -8.45373 8.78698
ltoes -12.282
833
root 9.03616 16.6763 -4.35179 -6.20939 -49.4439 0.689792
lowerback 9.1231 0.752518 8.08506
upperback -1.54737 2.08103 2.79183
thorax -6.59923 0.751251 -1.89551
lowerneck -4.14533 2.49487 6.50719
upperneck 13.324 4.1638 -11.1175
head 5.01748 1.67105 -4.32162
rclavicle -2.8128e-014 -3.49861e-014
rhumerus -31.2539 13.7216 -74.6373
rradius 38.1294
rwrist 3.47066
rhand -18.6904 -2.73442
rfingers 7.12502
rthumb 7.60396 -32.5777
lclavicle -2.8128e-014 -3.49861e-014
lhumerus -49.6878 -20.3867 94.7636
lradius 39.7849
lwrist 21.2554
lhand -7.57375 6.68922
lfingers 7.12502
lthumb 18.3189 35.8466
rfemur -6.07656 -7.07969 20.8314
rtibia 27.8579
rfoot -27.2851 -12.8665
rtoes 5.55921
lfemur -14.4041 21.4549 -11.5321
ltibia 42.5261
lfoot -8.81524 8.37956
ltoes -12.7904
834
root 9.00685 16.6674 -4.32409 -6.23859 -49.7227 0.781424
lowerback 9.11087 0.792315 8.16427
upperback -1.538 2.14151 2.81358
thorax -6.57525 0.778934 -1.92457
lowerneck -4.13974 2.58877 6.59144
upperneck 13.582 4.31903 -11.237
head 5.11372 1.73784 -4.36774
rclavicle 4.77083e-015 3.49861e-014
rhumerus -31.0286 14.0451 -74.7684
rradius 38.5574
rwrist 3.20507
rhand -18.7392 -2.73597
rfingers 7.12502
rthumb 7.55684 -32.581
lclavicle 4.77083e-015 3.49861e-014
lhumerus -49.9973 -20.3135 95.1542
lradius 39.6023
lwrist 21.3607
lhand -7.51274 6.87499
lfingers 7.12502
lthumb 18.3776 36.0269
rfemur -6.14041 -7.0375 20.7574
rtibia 28.1572
rfoot -27.384 -12.5562
rtoes 5.47075
lfemur -14.3557 21.3374 -11.7903
ltibia 41.3905
lfoot -9.18506 7.92857
ltoes -13.2311
835
root 8.97785 16.6583 -4.296 -6.26033 -50.0047 0.866308
lowerback 9.08812 0.825716 8.24119
upperback -1.53222 2.19226 2.83551
thorax -6.54996 0.80195 -1.95051
lowerneck -4.15241 2.68047 6.65138
upperneck 13.8714 4.47255 -11.3345
head 5.22218 1.8024 -4.403
rclavicle 0 5.08889e-014
rhumerus -30.8198 14.3804 -74.9178
rradius 38.9675
rwrist 2.94515
rhand -18.808 -2.74246
rfingers 7.12502
rthumb 7.49044 -32.5898
lclavicle 0 5.08889e-014
lhumerus -50.3008 -20.2559 95.556
lradius 39.3949
lwrist 21.5057
lhand -7.46142 7.10965
lfingers 7.12502
lthumb 18.427 36.2569
rfemur -6.20593 -7.00466 20.6831
rtibia 28.4529
rfoot -27.4654 -12.2305
rtoes 5.39017
lfemur -14.2821 21.1968 -12.0329
ltibia 40.2776
lfoot -9.54669 7.46302
ltoes -13.6963
836
root 8.9495 16.6493 -4.26738 -6.2656 -50.2929 0.932649
lowerback 9.05945 0.852654 8.32914
upperback -1.53164 2.23526 2.85716
thorax -6.52715 0.820543 -1.9816
lowerneck -4.17024 2.7703 6.70064
upperneck 14.1772 4.62424 -11.4196
head 5.33642 1.86545 -4.43276
rclavicle 8.28932e-014 2.54444e-014
rhumerus -30.6317 14.7192 -75.0865
rradius 39.3603
rwrist 2.71458
rhand -18.8853 -2.74686
rfingers 7.12502
rthumb 7.41587 -32.5969
lclavicle 8.28932e-014 2.54444e-014
lhumerus -50.6133 -20.2386 95.9731
lradius 39.1811
lwrist 21.6705
lhand -7.36553 7.36028
lfingers 7.12502
lthumb 18.5192 36.4987
rfemur -6.27183 -6.98562 20.6158
rtibia 28.7406
rfoot -27.5263 -11.8903
rtoes 5.32404
lfemur -14.1811 21.0187 -12.2519
ltibia 39.1906
lfoot -9.9088 7.01237
ltoes -14.1165
837
root 8.92148 16.6405 -4.23839 -6.25254 -50.588 0.976948
lowerback 9.03144 0.875809 8.43339
upperback -1.54153 2.27558 2.8736
thorax -6.5154 0.836455 -2.02684
lowerneck -4.18729 2.85418 6.73929
upperneck 14.4991 4.76714 -11.4821
head 5.45443 1.92445 -4.4542
rclavicle 2.38542e-014 2.22639e-014
rhumerus -30.4765 15.0191 -75.275
rradius 39.7321
rwrist 2.55637
rhand -18.9535 -2.73208
rfingers 7.12502
rthumb 7.35005 -32.5844
lclavicle 2.38542e-014 2.22639e-014
lhumerus -50.9292 -20.249 96.3838
lradius 38.9435
lwrist 21.7857
lhand -7.17491 7.60822
lfingers 7.12502
lthumb 18.7026 36.7291
rfemur -6.33626 -6.97033 20.5618
rtibia 29.017
rfoot -27.5727 -11.5602
rtoes 5.25266
lfemur -14.0514 20.8037 -12.4438
ltibia 38.1315
lfoot -10.2668 6.60956
ltoes -14.4502
838
root 8.89382 16.632 -4.20902 -6.23165 -50.8913 1.00922
lowerback 9.00483 0.895374 8.54385
upperback -1.55769 2.31214 2.88505
thorax -6.51104 0.849778 -2.08028
lowerneck -4.20462 2.93336 6.76984
upperneck 14.8289 4.90268 -11.527
head 5.57409 1.9801 -4.46919
rclavicle -1.88845e-014 -3.49861e-014
rhumerus -30.3528 15.2867 -75.4818
rradius 40.0883
rwrist 2.46925
rhand -19.004 -2.7002
rfingers 7.12502
rthumb 7.30132 -32.5542
lclavicle -1.88845e-014 -3.49861e-014
lhumerus -51.237 -20.2853 96.7836
lradius 38.6851
lwrist 21.8354
lhand -6.85053 7.8545
lfingers 7.12502
lthumb 19.0146 36.9451
rfemur -6.39504 -6.96796 20.5125
rtibia 29.2792
rfoot -27.6028 -11.2394
rtoes 5.15403
lfemur -13.8889 20.5709 -12.6127
ltibia 37.1046
lfoot -10.5959 6.27773
ltoes -14.7748
839
root 8.86648 16.6239 -4.17935 -6.20687 -51.1998 1.03126
lowerback 8.98122 0.911873 8.65712
upperback -1.57874 2.34536 2.89129
thorax -6.51355 0.860881 -2.14036
lowerneck -4.22109 3.00743 6.79569
upperneck 15.1615 5.02982 -11.5566
head 5.69363 2.03214 -4.47902
rclavicle 2.22639e-014 -1.59028e-014
rhumerus -30.2607 15.5171 -75.7042
rradius 40.4274
rwrist 2.4399
rhand -19.0245 -2.65059
rfingers 7.12502
rthumb 7.28153 -32.5053
lclavicle 2.22639e-014 -1.59028e-014
lhumerus -51.5311 -20.3443 97.1666
lradius 38.405
lwrist 21.8025
lhand -6.38384 8.06024
lfingers 7.12502
lthumb 19.4633 37.1061
rfemur -6.44491 -6.98009 20.4663
rtibia 29.5276
rfoot -27.6243 -10.9315
rtoes 5.01674
lfemur -13.6906 20.3214 -12.7588
ltibia 36.1136
lfoot -10.8828 6.03658
ltoes -15.0442
840
root 8.83944 16.6162 -4.14944 -6.18352 -51.5161 1.05023
lowerback 8.95531 0.925794 8.76014
upperback -1.6007 2.3737 2.89586
thorax -6.51637 0.869928 -2.19579
lowerneck -4.23979 3.08007 6.82814
upperneck 15.4955 5.15475 -11.588
head 5.81438 2.08307 -4.49075
rclavicle -1.04163e-013 -9.54166e-015
rhumerus -30.1943 15.7167 -75.9373
rradius 40.7487
rwrist 2.44965
rhand -19.0085 -2.58958
rfingers 7.12502
rthumb 7.29691 -32.4438
lclavicle -1.04163e-013 -9.54166e-015
lhumerus -51.7855 -20.3925 97.5193
lradius 38.092
lwrist 21.6793
lhand -5.78325 8.25986
lfingers 7.12502
lthumb 20.0407 37.2463
rfemur -6.4853 -7.00609 20.4186
rtibia 29.7619
rfoot -27.6369 -10.6339
rtoes 4.83526
lfemur -13.4563 20.0651 -12.8858
ltibia 35.1631
lfoot -11.1098 5.89761
ltoes -15.262
